<?xml version="1.0" encoding="UTF-8"?>
<svg version="1.1" xmlns="http://www.w3.org/2000/svg" width="512" height="512">
<path d="M0 0 C9.51218227 5.41125835 16.9985403 14.27591718 24.68652344 21.94702148 C25.95195289 23.20617486 27.21756775 24.46514193 28.48335266 25.72393799 C32.61223965 29.83193734 36.73592919 33.94513402 40.859375 38.05859375 C42.28446516 39.47963215 43.70958792 40.90063786 45.13474274 42.3216114 C51.8253741 48.99323337 58.51362105 55.66723434 65.19893146 62.34418815 C72.90141739 70.0368845 80.61212815 77.72121291 88.32985854 85.39861435 C94.30819538 91.34678466 100.27882918 97.30261692 106.24375749 103.26423317 C109.80141032 106.81953842 113.36227502 110.37147814 116.93132782 113.91534233 C120.28574207 117.24645829 123.63048397 120.58699184 126.96813011 123.93490601 C128.19172295 125.15899369 129.41872212 126.3796877 130.64941597 127.59663582 C139.54679606 136.40019471 146.07835229 143.7351474 146.4375 156.875 C146.50614258 157.84856445 146.50614258 157.84856445 146.57617188 158.84179688 C146.78109244 168.09886062 141.70082387 175.9426866 135.58562493 182.47614622 C132.5346515 185.6051412 129.41497289 188.65970961 126.28369141 191.70800781 C124.88245595 193.09442809 123.48261141 194.48225533 122.08404541 195.87136841 C119.08704291 198.84276617 116.0810899 201.80468265 113.06779861 204.75955963 C108.30315471 209.43307646 103.56294157 214.13086714 98.82626343 218.83270264 C87.06595663 230.49914113 75.27520396 242.13467886 63.47607422 253.76184082 C54.28846443 262.81609895 45.1099011 271.87912516 35.95865762 280.97015643 C31.25055642 285.64525398 26.52432781 290.30096246 21.78354955 294.94290972 C18.84282186 297.83037037 15.91883341 300.73433575 12.99924469 303.64315414 C11.64203795 304.98857219 10.27793446 306.3270737 8.90655899 307.65804672 C7.03558146 309.47578907 5.190845 311.31667475 3.35049438 313.16534424 C2.52786148 313.94688397 2.52786148 313.94688397 1.68860972 314.74421239 C-1.12411275 317.62699307 -2.30740133 319.62669145 -2.27581215 323.58732224 C-2.18479414 324.8578809 -2.09377613 326.12843956 -2 327.4375 C-3.88545056 335.23069566 -8.48414466 339.80050582 -14 345.4375 C-15.0042569 346.49185362 -16.00815029 347.54655357 -17.01171875 348.6015625 C-18.04802648 349.67328159 -19.08576959 350.74361474 -20.125 351.8125 C-20.60316162 352.31233398 -21.08132324 352.81216797 -21.57397461 353.32714844 C-26.27557503 358.06957665 -31.25924709 361.82017637 -38.1875 362.0625 C-44.91780184 362.33807141 -48.10212876 365.25232599 -52.71520996 369.95257568 C-53.2818582 370.52174847 -53.84850644 371.09092125 -54.43232584 371.6773417 C-56.33140496 373.58718219 -58.22322665 375.50405428 -60.11523438 377.42089844 C-61.47517209 378.79122259 -62.83559681 380.16106357 -64.19647217 381.53045654 C-67.12815057 384.4820252 -70.05689057 387.43646867 -72.98356628 390.39299774 C-77.61748056 395.07305149 -82.26116 399.7433314 -86.90686035 404.41168213 C-100.11711308 417.68878448 -113.31922718 430.97389984 -126.5 444.28027344 C-133.77846657 451.62793228 -141.06771945 458.96471047 -148.36900568 466.28969598 C-152.22970966 470.16390669 -156.08458196 474.04354937 -159.92607117 477.93682098 C-163.5444068 481.60392593 -167.17664102 485.25667823 -170.81967926 488.89923859 C-172.14871139 490.233086 -173.47264146 491.57204129 -174.79080963 492.91662598 C-191.46482894 509.91050795 -191.46482894 509.91050795 -203.35546875 511.1640625 C-222.7101828 510.65109352 -231.61702168 499.96878641 -244.68652344 486.92797852 C-245.95195289 485.66882514 -247.21756775 484.40985807 -248.48335266 483.15106201 C-252.61223965 479.04306266 -256.73592919 474.92986598 -260.859375 470.81640625 C-262.28446516 469.39536785 -263.70958792 467.97436214 -265.13474274 466.5533886 C-271.8253741 459.88176663 -278.51362105 453.20776566 -285.19893146 446.53081185 C-292.90141739 438.8381155 -300.61212815 431.15378709 -308.32985854 423.47638565 C-314.30819538 417.52821534 -320.27882918 411.57238308 -326.24375749 405.61076683 C-329.80141032 402.05546158 -333.36227502 398.50352186 -336.93132782 394.95965767 C-340.28574207 391.62854171 -343.63048397 388.28800816 -346.96813011 384.94009399 C-348.19172295 383.71600631 -349.41872212 382.4953123 -350.64941597 381.27836418 C-358.86117847 373.15319317 -365.45703193 366.58979985 -365.64453125 354.40234375 C-365.63808594 353.46519531 -365.63164062 352.52804687 -365.625 351.5625 C-365.65722656 350.63308594 -365.68945312 349.70367187 -365.72265625 348.74609375 C-365.73756522 338.05636041 -360.13496633 331.26605716 -352.92556763 323.93588257 C-350.42678211 321.43405713 -347.90217281 318.95943723 -345.37548828 316.48583984 C-343.98453495 315.10913242 -342.59453036 313.73146589 -341.20539856 312.35292053 C-338.22675658 309.40036018 -335.24220134 306.4539598 -332.25299454 303.51209641 C-327.52665481 298.85923336 -322.81799877 294.18874452 -318.11227417 289.51504517 C-304.73364617 276.23280659 -291.33136077 262.97458837 -277.91210938 249.73339844 C-270.48992238 242.40938804 -263.08216874 235.07108353 -255.68962467 227.71715128 C-251.01424556 223.06793437 -246.3214224 218.4373148 -241.61487126 213.81966758 C-238.69479317 210.94648844 -235.79156045 208.05674473 -232.89284325 205.16203117 C-231.54530623 203.82308714 -230.19087839 202.49103745 -228.82918358 201.16649437 C-226.97131356 199.35738147 -225.13972054 197.52516983 -223.31253052 195.68515015 C-222.76799953 195.16665037 -222.22346853 194.64815058 -221.6624366 194.11393869 C-218.8610482 191.23518751 -217.69495533 189.23728575 -217.72656059 185.28920937 C-217.8167956 184.01814528 -217.9070306 182.74708118 -218 181.4375 C-216.11454944 173.64430434 -211.51585534 169.07449418 -206 163.4375 C-204.9957431 162.38314638 -203.99184971 161.32844643 -202.98828125 160.2734375 C-201.95197352 159.20171841 -200.91423041 158.13138526 -199.875 157.0625 C-199.39683838 156.56266602 -198.91867676 156.06283203 -198.42602539 155.54785156 C-193.72442497 150.80542335 -188.74075291 147.05482363 -181.8125 146.8125 C-176.58896107 146.59862282 -173.49788264 145.19378477 -169.8125 141.47705078 C-169.20696289 140.87137268 -168.60142578 140.26569458 -167.97753906 139.6416626 C-167.32495117 138.97874207 -166.67236328 138.31582153 -166 137.6328125 C-165.30358398 136.93347595 -164.60716797 136.2341394 -163.88964844 135.51361084 C-162.37928443 133.99564014 -160.87123531 132.47536344 -159.36523438 130.95306396 C-156.98256721 128.54488052 -154.59371688 126.14299091 -152.203125 123.74267578 C-147.12981574 118.64650186 -142.0643614 113.542564 -137 108.4375 C-131.13189135 102.52222898 -125.26062788 96.61016522 -119.38085938 90.70648193 C-117.0258333 88.33847568 -114.67690499 85.96453145 -112.328125 83.59033203 C-110.88571302 82.14065559 -109.44301984 80.69125887 -108 79.2421875 C-107.34741211 78.57926697 -106.69482422 77.91634644 -106.02246094 77.2333374 C-105.41692383 76.6276593 -104.81138672 76.0219812 -104.1875 75.39794922 C-103.66542969 74.87143768 -103.14335937 74.34492615 -102.60546875 73.80245972 C-98.55621459 70.35980858 -95.24889701 70.15630909 -90 70.4375 C-89.38769531 70.70433594 -88.77539062 70.97117187 -88.14453125 71.24609375 C-85.7287566 71.6897117 -85.7287566 71.6897117 -83.16796875 69.515625 C-82.15306546 68.59600994 -81.16020185 67.65164297 -80.1875 66.6875 C-79.43134399 65.94173706 -79.43134399 65.94173706 -78.65991211 65.1809082 C-76.31525418 62.64216004 -75.05810094 60.92877572 -74.6484375 57.46484375 C-74.92061345 55.59812757 -75.2526299 53.73899469 -75.6484375 51.89453125 C-76.05063346 49.0836284 -75.74882406 48.13233965 -74.1875 45.8125 C-71.14711191 42.51150722 -71.14711191 42.51150722 -67.94140625 42.3046875 C-67.15636719 42.30726562 -66.37132812 42.30984375 -65.5625 42.3125 C-64.38880859 42.30863281 -64.38880859 42.30863281 -63.19140625 42.3046875 C-61 42.4375 -61 42.4375 -58 43.4375 C-49.95412779 37.32228501 -49.95412779 37.32228501 -45.75390625 28.84765625 C-46.36610776 26.56241656 -46.36610776 26.56241656 -47.43359375 24.5703125 C-48 22.4375 -48 22.4375 -46.9375 19.5546875 C-37.03461043 3.62221597 -18.73160831 -7.40852902 0 0 Z " fill="#000000" transform="translate(365,1.5625)"/>
<path d="M0 0 C1.13199353 0.9080162 2.25532363 1.82683826 3.375 2.75 C4.00148438 3.26046875 4.62796875 3.7709375 5.2734375 4.296875 C7.09276893 6.09150963 7.92026058 7.70813932 9 10 C8.40612661 10.5924907 8.40612661 10.5924907 7.80025578 11.19695091 C-1.8249744 20.80011426 -11.44741671 30.40606326 -21.0668478 40.01503563 C-25.71878042 44.66174106 -30.37164223 49.30750817 -35.02661133 53.95117188 C-39.51562179 58.42934767 -44.0022125 62.90993442 -48.48710823 67.39223099 C-50.20191862 69.10518817 -51.91761145 70.81726241 -53.63418388 72.52845383 C-56.03114284 74.91819472 -58.42499566 77.31100505 -60.81811523 79.70458984 C-61.89273262 80.77381432 -61.89273262 80.77381432 -62.98905945 81.86463928 C-63.96295624 82.84059807 -63.96295624 82.84059807 -64.95652771 83.83627319 C-65.5234304 84.40225409 -66.09033308 84.96823498 -66.67441463 85.55136681 C-68.38780529 87.42380343 -68.99526282 88.50070111 -69.01953125 91.05859375 C-68.66008233 95.89005393 -68.66008233 95.89005393 -66.4375 100.0625 C-62.8186257 101.45437473 -59.74560997 101.95776066 -56 101 C-54.0292311 99.68048085 -54.0292311 99.68048085 -52.19848633 97.91795349 C-51.5027652 97.28087904 -50.80704407 96.64380459 -50.09024048 95.98742485 C-46.87410549 92.92948646 -43.70339657 89.83463499 -40.57421875 86.68774414 C-39.88054703 85.99421844 -39.18687531 85.30069275 -38.47218323 84.58615112 C-36.20824012 82.32151826 -33.94784741 80.05337751 -31.6875 77.78515625 C-30.1073156 76.20310434 -28.52690847 74.62127488 -26.94628906 73.03965759 C-22.80789763 68.89746722 -18.67251946 64.75228143 -14.53778076 60.60644531 C-10.30956981 56.36796357 -6.07848948 52.13234829 -1.84765625 47.89648438 C6.43769225 39.60044488 14.71985738 31.30123518 23 23 C24.10656632 23.94462691 25.21257727 24.88990442 26.31835938 25.83544922 C27.24231506 26.62494461 27.24231506 26.62494461 28.18493652 27.4303894 C30.68980612 29.59652294 33.11212969 31.83063063 35.5 34.125 C36.81484375 35.36636719 36.81484375 35.36636719 38.15625 36.6328125 C40 39 40 39 39.9433403 40.79645443 C38.55973281 44.02841871 36.2154595 46.19353117 33.75030518 48.62391663 C33.19761546 49.18058075 32.64492574 49.73724487 32.07548785 50.3107776 C30.21788736 52.17801805 28.34973307 54.0343265 26.48144531 55.89086914 C25.14889519 57.2258467 23.81699122 58.56146952 22.48568726 59.89768982 C18.86433535 63.52846223 15.23361677 67.14973325 11.60090733 70.76913762 C7.80279084 74.55595109 4.01237685 78.35046031 0.22088623 82.14390564 C-6.14962694 88.51530231 -12.52610093 94.880685 -18.90625 101.24243164 C-26.28283376 108.59786058 -33.65056407 115.96206502 -41.01345515 123.33119875 C-48.09353178 130.4169709 -55.17926776 137.49705623 -62.26779938 144.57436943 C-65.28537873 147.58730392 -68.30106497 150.60211473 -71.31526947 153.61842537 C-74.86629664 157.17133665 -78.42228359 160.71920887 -81.98215866 164.26325417 C-83.28796495 165.56481873 -84.59208062 166.86808197 -85.89437485 168.17316055 C-87.67245658 169.9544665 -89.45657757 171.72949669 -91.24237061 173.50306702 C-91.75629325 174.02076898 -92.27021589 174.53847095 -92.79971194 175.07186085 C-96.64867007 178.87435078 -99.93887761 181.61110898 -105.3125 182.625 C-110.6474627 181.72076903 -113.28526087 178.76136766 -117 175 C-117.53367188 174.47921875 -118.06734375 173.9584375 -118.6171875 173.421875 C-119.76097244 172.29747625 -120.88344706 171.15144522 -122 170 C-120.40069566 165.95864413 -117.51339591 163.32092848 -114.4375 160.375 C-109.33326499 155.69286852 -109.33326499 155.69286852 -107.75 149.125 C-107.81024749 146.57143316 -108.01025617 144.97333396 -108.9375 142.5625 C-111.75305351 140.42950492 -114.09595901 139.8866824 -117.6015625 139.6484375 C-122.26235081 140.33161494 -124.89647616 143.6960529 -128 147 C-129.49858926 148.48059591 -130.99855321 149.95980193 -132.5 151.4375 C-133.66923328 152.62247296 -134.83687329 153.80903249 -136 155 C-142.41069287 149.72898586 -148.18590512 143.90871848 -154 138 C-148.9104257 131.86540468 -143.39851039 126.21017303 -137.79125977 120.55078125 C-136.76711624 119.51380132 -135.74312341 118.47667254 -134.7192688 117.43940735 C-125.43408054 108.03908868 -116.11970905 98.66745082 -106.79899693 89.30236816 C-99.91577907 82.38581785 -93.04612773 75.45635137 -86.19356495 68.50942516 C-81.3639822 63.61559897 -76.51925019 58.73710008 -71.66305774 53.86967945 C-68.76590909 50.96496643 -65.87598425 48.05382032 -63.00229073 45.12588501 C-60.30345663 42.3767002 -57.58641181 39.64693813 -54.85414505 36.93099022 C-53.85508336 35.93132393 -52.86285456 34.92477489 -51.87810707 33.91100502 C-44.21803256 26.03711618 -44.21803256 26.03711618 -39.00205994 25.87817383 C-38.01138016 26.24837646 -37.02070038 26.6185791 -36 27 C-35.21753906 27.17660156 -34.43507813 27.35320312 -33.62890625 27.53515625 C-32.60603516 27.79619141 -32.60603516 27.79619141 -31.5625 28.0625 C-24.70127845 29.58592377 -19.11370218 29.80391417 -12.8203125 26.25 C-6.30179604 21.77376552 -4.92824127 16.28809835 -3 9 C-2.45101724 7.28727499 -1.8892958 5.57855969 -1.3125 3.875 C-1.06113281 3.12992187 -0.80976563 2.38484375 -0.55078125 1.6171875 C-0.36902344 1.08351563 -0.18726563 0.54984375 0 0 Z " fill="#FBE8CD" transform="translate(263,310)"/>
<path d="M0 0 C7.50547957 1.69935387 12.17385561 7.37659521 17.3125 12.75 C15.6853341 16.85941887 12.7248638 19.61075275 9.64315796 22.65985107 C9.05750112 23.24721676 8.47184428 23.83458245 7.86844027 24.4397471 C5.90318218 26.40830158 3.93085708 28.36961879 1.95849609 30.33105469 C0.54892249 31.74006421 -0.86021099 33.14951416 -2.26893616 34.55937195 C-6.09687433 38.38788476 -9.93095476 42.21019285 -13.76614809 46.03143597 C-17.77225747 50.02505651 -21.7727169 54.02432838 -25.77377319 58.02301025 C-33.3522657 65.59528257 -40.93584279 73.16244151 -48.52124918 80.72778726 C-57.15626574 89.34046162 -65.78561489 97.95880477 -74.41448712 106.57763433 C-92.16584865 124.30808164 -109.92433351 142.03138002 -127.6875 159.75 C-128.79406632 158.80537309 -129.90007727 157.86009558 -131.00585938 156.91455078 C-131.92981506 156.12505539 -131.92981506 156.12505539 -132.87243652 155.3196106 C-135.37730612 153.15347706 -137.79962969 150.91936937 -140.1875 148.625 C-141.50234375 147.38363281 -141.50234375 147.38363281 -142.84375 146.1171875 C-144.6875 143.75 -144.6875 143.75 -144.47829437 141.79973793 C-143.58903345 139.49477484 -142.62690202 138.3217384 -140.87854004 136.58700562 C-140.2812056 135.98699234 -139.68387115 135.38697906 -139.06843567 134.76878357 C-138.40969955 134.12240433 -137.75096344 133.47602509 -137.07226562 132.81005859 C-136.38122238 132.12018356 -135.69017914 131.43030853 -134.97819519 130.7195282 C-132.69026658 128.43879279 -130.39201216 126.16875554 -128.09375 123.8984375 C-126.50501362 122.31783523 -124.91701024 120.73649587 -123.32971191 119.15444946 C-119.14761891 114.98948878 -114.95704092 110.83317489 -110.76422119 106.67901611 C-104.05034375 100.02429878 -97.34908713 93.3568778 -90.64836121 86.68892288 C-88.30167359 84.35623921 -85.95123538 82.0273868 -83.60021973 79.69906616 C-82.16764354 78.27650986 -80.73514419 76.85387617 -79.30273438 75.43115234 C-78.64399826 74.78072464 -77.98526215 74.13029694 -77.30656433 73.4601593 C-76.41056267 72.56859886 -76.41056267 72.56859886 -75.49645996 71.6590271 C-74.97510216 71.14248755 -74.45374435 70.62594799 -73.91658783 70.09375572 C-71.30363808 67.23703052 -71.5355421 64.57455861 -71.45703125 60.8203125 C-71.72239219 58.43656167 -72.5115724 56.82297908 -73.6875 54.75 C-72.80964844 54.01136719 -71.93179688 53.27273437 -71.02734375 52.51171875 C-64.47022045 47.13174715 -64.47022045 47.13174715 -61.25390625 39.71484375 C-61.65129113 36.88524785 -61.65129113 36.88524785 -62.30078125 34.171875 C-62.74825384 31.36952139 -62.43642295 30.44230615 -60.875 28.125 C-57.83461191 24.82400722 -57.83461191 24.82400722 -54.62890625 24.6171875 C-53.84386719 24.61976562 -53.05882812 24.62234375 -52.25 24.625 C-51.07630859 24.62113281 -51.07630859 24.62113281 -49.87890625 24.6171875 C-47.6875 24.75 -47.6875 24.75 -44.6875 25.75 C-40.7275 21.79 -36.7675 17.83 -32.6875 13.75 C-30.7075 14.41 -28.7275 15.07 -26.6875 15.75 C-23.77367271 16.50060849 -23.77367271 16.50060849 -20.6875 15.75 C-16.89319187 13.09962341 -13.6996879 9.75346214 -10.421875 6.50390625 C-4.58165822 0.93186269 -4.58165822 0.93186269 0 0 Z " fill="#FBE9CE" transform="translate(351.6875,19.25)"/>
<path d="M0 0 C3.01409306 1.44304314 5.10472016 2.86591868 7.453125 5.2578125 C8.071875 5.88300781 8.690625 6.50820312 9.328125 7.15234375 C9.96234375 7.80332031 10.5965625 8.45429688 11.25 9.125 C12.22453125 10.11306641 12.22453125 10.11306641 13.21875 11.12109375 C14.81711727 12.74296643 16.41061897 14.3693281 18 16 C16.3728341 20.10941887 13.4123638 22.86075275 10.33065796 25.90985107 C9.74500112 26.49721676 9.15934428 27.08458245 8.55594027 27.6897471 C6.59068218 29.65830158 4.61835708 31.61961879 2.64599609 33.58105469 C1.23642249 34.99006421 -0.17271099 36.39951416 -1.58143616 37.80937195 C-5.40937433 41.63788476 -9.24345476 45.46019285 -13.07864809 49.28143597 C-17.08475747 53.27505651 -21.0852169 57.27432838 -25.08627319 61.27301025 C-32.6647657 68.84528257 -40.24834279 76.41244151 -47.83374918 83.97778726 C-56.46876574 92.59046162 -65.09811489 101.20880477 -73.72698712 109.82763433 C-91.47834865 127.55808164 -109.23683351 145.28138002 -127 163 C-128.10338218 162.0636169 -129.20541029 161.12563812 -130.30688477 160.18701172 C-130.92072525 159.66485077 -131.53456573 159.14268982 -132.16700745 158.60470581 C-134.87952853 156.23001076 -137.41223193 153.69567399 -139.9375 151.125 C-140.43056641 150.62742187 -140.92363281 150.12984375 -141.43164062 149.6171875 C-142.62345992 148.41379715 -143.81208678 147.20724635 -145 146 C-141.17680348 141.43229576 -137.22442216 137.08066451 -133.00149536 132.88124084 C-132.42875503 132.30764609 -131.85601471 131.73405134 -131.26591861 131.14307493 C-129.36600135 129.24152414 -127.46255743 127.34354516 -125.55908203 125.44555664 C-124.18854138 124.07529835 -122.81822146 122.70481926 -121.44810486 121.33413696 C-117.7421361 117.62788213 -114.0330994 113.92471153 -110.32349253 110.22209859 C-106.44196568 106.34683683 -102.56328381 102.46872971 -98.68429565 98.59092712 C-91.34476989 91.25450538 -84.00269946 83.9206358 -76.65970504 76.587686 C-68.29740778 68.23657874 -59.9379609 59.88262072 -51.57874894 51.52842534 C-34.38899615 34.34911589 -17.19567763 17.17337881 0 0 Z " fill="#FBE8CD" transform="translate(191,239)"/>
<path d="M0 0 C1.10338218 0.9363831 2.20541029 1.87436188 3.30688477 2.81298828 C3.92072525 3.33514923 4.53456573 3.85731018 5.16700745 4.39529419 C7.87952853 6.76998924 10.41223193 9.30432601 12.9375 11.875 C13.67709961 12.62136719 13.67709961 12.62136719 14.43164062 13.3828125 C15.62345992 14.58620285 16.81208678 15.79275365 18 17 C14.17680348 21.56770424 10.22442216 25.91933549 6.00149536 30.11875916 C5.42875503 30.69235391 4.85601471 31.26594866 4.26591861 31.85692507 C2.36600135 33.75847586 0.46255743 35.65645484 -1.44091797 37.55444336 C-2.81145862 38.92470165 -4.18177854 40.29518074 -5.55189514 41.66586304 C-9.2578639 45.37211787 -12.9669006 49.07528847 -16.67650747 52.77790141 C-20.55803432 56.65316317 -24.43671619 60.53127029 -28.31570435 64.40907288 C-35.65523011 71.74549462 -42.99730054 79.0793642 -50.34029496 86.412314 C-58.70259222 94.76342126 -67.0620391 103.11737928 -75.42125106 111.47157466 C-92.61100385 128.65088411 -109.80432237 145.82662119 -127 163 C-130.01409306 161.55695686 -132.10472016 160.13408132 -134.453125 157.7421875 C-135.071875 157.11699219 -135.690625 156.49179687 -136.328125 155.84765625 C-137.27945312 154.87119141 -137.27945312 154.87119141 -138.25 153.875 C-138.8996875 153.21628906 -139.549375 152.55757812 -140.21875 151.87890625 C-141.81711727 150.25703357 -143.41061897 148.6306719 -145 147 C-143.3728341 142.89058113 -140.4123638 140.13924725 -137.33065796 137.09014893 C-136.74500112 136.50278324 -136.15934428 135.91541755 -135.55594027 135.3102529 C-133.59068218 133.34169842 -131.61835708 131.38038121 -129.64599609 129.41894531 C-128.23642249 128.00993579 -126.82728901 126.60048584 -125.41856384 125.19062805 C-121.59062567 121.36211524 -117.75654524 117.53980715 -113.92135191 113.71856403 C-109.91524253 109.72494349 -105.9147831 105.72567162 -101.91372681 101.72698975 C-94.3352343 94.15471743 -86.75165721 86.58755849 -79.16625082 79.02221274 C-70.53123426 70.40953838 -61.90188511 61.79119523 -53.27301288 53.17236567 C-35.52165135 35.44191836 -17.76316649 17.71861998 0 0 Z " fill="#FBE8CD" transform="translate(446,110)"/>
<path d="M0 0 C3.01409306 1.44304314 5.10472016 2.86591868 7.453125 5.2578125 C8.071875 5.88300781 8.690625 6.50820312 9.328125 7.15234375 C9.96234375 7.80332031 10.5965625 8.45429687 11.25 9.125 C12.22453125 10.11306641 12.22453125 10.11306641 13.21875 11.12109375 C14.81711727 12.74296643 16.41061897 14.3693281 18 16 C16.3728341 20.10941887 13.4123638 22.86075275 10.33065796 25.90985107 C9.74500112 26.49721676 9.15934428 27.08458245 8.55594027 27.6897471 C6.59068218 29.65830158 4.61835708 31.61961879 2.64599609 33.58105469 C1.23642249 34.99006421 -0.17271099 36.39951416 -1.58143616 37.80937195 C-5.40937433 41.63788476 -9.24345476 45.46019285 -13.07864809 49.28143597 C-17.08475747 53.27505651 -21.0852169 57.27432838 -25.08627319 61.27301025 C-32.6647657 68.84528257 -40.24834279 76.41244151 -47.83374918 83.97778726 C-56.46876574 92.59046162 -65.09811489 101.20880477 -73.72698712 109.82763433 C-91.47834865 127.55808164 -109.23683351 145.28138002 -127 163 C-128.10338218 162.0636169 -129.20541029 161.12563812 -130.30688477 160.18701172 C-130.92072525 159.66485077 -131.53456573 159.14268982 -132.16700745 158.60470581 C-134.87952853 156.23001076 -137.41223193 153.69567399 -139.9375 151.125 C-140.43056641 150.62742188 -140.92363281 150.12984375 -141.43164062 149.6171875 C-142.62345992 148.41379715 -143.81208678 147.20724635 -145 146 C-141.17680348 141.43229576 -137.22442216 137.08066451 -133.00149536 132.88124084 C-132.42875503 132.30764609 -131.85601471 131.73405134 -131.26591861 131.14307493 C-129.36600135 129.24152414 -127.46255743 127.34354516 -125.55908203 125.44555664 C-124.18854138 124.07529835 -122.81822146 122.70481926 -121.44810486 121.33413696 C-117.7421361 117.62788213 -114.0330994 113.92471153 -110.32349253 110.22209859 C-106.44196568 106.34683683 -102.56328381 102.46872971 -98.68429565 98.59092712 C-91.34476989 91.25450538 -84.00269946 83.9206358 -76.65970504 76.587686 C-68.29740778 68.23657874 -59.9379609 59.88262072 -51.57874894 51.52842534 C-34.38899615 34.34911589 -17.19567763 17.17337881 0 0 Z " fill="#FBE8CD" transform="translate(414,79)"/>
<path d="M0 0 C2.2004229 1.15904098 3.68282467 2.51752166 5.42016411 4.29979229 C6.0840313 4.97332745 6.74789848 5.6468626 7.43188286 6.34080791 C8.11379692 7.0478587 8.79571098 7.75490948 9.49828911 8.48338604 C10.54436333 9.54976299 10.54436333 9.54976299 11.61157036 10.63768291 C13.33076462 12.39220309 15.04123044 14.15458053 16.74828911 15.92088604 C12.92509259 20.48859028 8.97271127 24.84022153 4.74978447 29.0396452 C4.17704414 29.61323995 3.60430382 30.1868347 3.01420772 30.77781111 C1.11429046 32.6793619 -0.78915347 34.57734088 -2.69262886 36.4753294 C-4.06316951 37.84558769 -5.43348943 39.21606678 -6.80360603 40.58674908 C-10.50957479 44.29300391 -14.21861149 47.99617451 -17.92821836 51.69878745 C-21.80974521 55.57404921 -25.68842708 59.45215633 -29.56741524 63.32995892 C-36.906941 70.66638066 -44.24901144 78.00025024 -51.59200585 85.33320004 C-59.95430312 93.6843073 -68.31374999 102.03826532 -76.67296195 110.3924607 C-93.86271474 127.57177015 -111.05603326 144.74750723 -128.25171089 161.92088604 C-131.26580395 160.4778429 -133.35643105 159.05496736 -135.70483589 156.66307354 C-136.32358589 156.03787823 -136.94233589 155.41268291 -137.57983589 154.76854229 C-138.53116402 153.79207745 -138.53116402 153.79207745 -139.50171089 152.79588604 C-140.15139839 152.1371751 -140.80108589 151.47846416 -141.47046089 150.79979229 C-143.06882817 149.17791961 -144.66232986 147.55155794 -146.25171089 145.92088604 C-144.62636307 141.83679412 -141.70431959 139.08576724 -138.64724922 136.04226971 C-137.77912269 135.16628816 -137.77912269 135.16628816 -136.89345825 134.27261001 C-134.95139178 132.31553217 -133.00223219 130.36567855 -131.05298042 128.41575909 C-129.65978378 127.01494204 -128.26699163 125.6137226 -126.87457466 124.21213055 C-123.09029427 120.40589375 -119.29945003 116.60626109 -115.50671816 112.8084476 C-113.1394182 110.43750712 -110.77342244 108.06527306 -108.40786552 105.69259357 C-100.16117725 97.42141226 -91.90878527 89.15596606 -83.65161324 80.89525127 C-75.94395645 73.18395358 -68.24954624 65.45960767 -60.56101334 57.7292468 C-53.96597822 51.0995881 -47.36142376 44.47951478 -40.74940383 37.86679584 C-36.79739958 33.91399643 -32.84952349 29.95727112 -28.91132164 25.99071598 C-25.21064226 22.26399023 -21.49833297 18.54926635 -17.77655983 14.84360981 C-16.40962849 13.47850335 -15.0469961 12.10907719 -13.68892479 10.73515606 C-11.84060261 8.86657715 -9.97770106 7.01390451 -8.11013985 5.16458416 C-7.57064079 4.61188514 -7.03114174 4.05918612 -6.47529423 3.48973864 C-2.80509429 -0.09855711 -2.80509429 -0.09855711 0 0 Z " fill="#FBE8CD" transform="translate(384.25171089172363,48.07911396026611)"/>
<path d="M0 0 C3.58205841 1.67857417 5.9040387 3.66593031 8.6875 6.5 C9.47511719 7.2940625 10.26273438 8.088125 11.07421875 8.90625 C13.48013329 11.52201104 13.94033157 12.57379695 14.4375 16.125 C13.29256406 26.26586122 2.00638608 34.29746494 -4.91845703 41.22485352 C-6.23342181 42.54744908 -7.54798635 43.87044268 -8.86218262 45.19380188 C-12.4148859 48.76834723 -15.97404569 52.33639321 -19.53513575 55.90258145 C-21.75973379 58.13083069 -23.98303009 60.36037055 -26.20589828 62.59034538 C-33.9598566 70.36874769 -41.71947298 78.14145869 -49.48388672 85.90942383 C-56.72583605 93.15502007 -63.95450823 100.41368315 -71.17736542 107.67830712 C-77.38182841 113.91738978 -83.59580486 120.14688884 -89.81725204 126.36903518 C-93.53222036 130.08479817 -97.24306403 133.80447055 -100.94421768 137.53399849 C-104.41842157 141.03424502 -107.90423843 144.52248245 -111.39953613 148.0016613 C-112.68261802 149.28291857 -113.96140306 150.56849482 -115.23562241 151.85856628 C-116.96988751 153.61309216 -118.71869369 155.35166387 -120.47219849 157.08692932 C-121.23066297 157.86519375 -121.23066297 157.86519375 -122.00444996 158.6591807 C-123.4318409 160.05266666 -123.4318409 160.05266666 -126 162 C-129.58324079 161.83974821 -131.22650768 160.12970332 -133.671875 157.62109375 C-134.33574219 156.94755859 -134.99960937 156.27402344 -135.68359375 155.58007812 C-136.36550781 154.87302734 -137.04742187 154.16597656 -137.75 153.4375 C-138.44738281 152.72658203 -139.14476562 152.01566406 -139.86328125 151.28320312 C-141.58247552 149.52868295 -143.29294133 147.76630551 -145 146 C-141.17680348 141.43229576 -137.22442216 137.08066451 -133.00149536 132.88124084 C-132.42875503 132.30764609 -131.85601471 131.73405134 -131.26591861 131.14307493 C-129.36600135 129.24152414 -127.46255743 127.34354516 -125.55908203 125.44555664 C-124.18854138 124.07529835 -122.81822146 122.70481926 -121.44810486 121.33413696 C-117.7421361 117.62788213 -114.0330994 113.92471153 -110.32349253 110.22209859 C-106.44196568 106.34683683 -102.56328381 102.46872971 -98.68429565 98.59092712 C-91.34476989 91.25450538 -84.00269946 83.9206358 -76.65970504 76.587686 C-68.29740778 68.23657874 -59.9379609 59.88262072 -51.57874894 51.52842534 C-34.38899615 34.34911589 -17.19567763 17.17337881 0 0 Z " fill="#FAE8CD" transform="translate(477,142)"/>
<path d="M0 0 C2.22210652 1.14145451 3.69038714 2.49473459 5.4352417 4.2847147 C6.09910889 4.95824986 6.76297607 5.63178501 7.44696045 6.32573032 C8.12887451 7.03278111 8.81078857 7.73983189 9.5133667 8.46830845 C10.55944092 9.5346854 10.55944092 9.5346854 11.62664795 10.62260532 C13.34584221 12.3771255 15.05630803 14.13950294 16.7633667 15.90580845 C12.94017018 20.47351269 8.98778886 24.82514394 4.76486206 29.0245676 C4.19212173 29.59816236 3.61938141 30.17175711 3.02928531 30.76273352 C1.12936805 32.66428431 -0.77407587 34.56226329 -2.67755127 36.46025181 C-4.04809192 37.8305101 -5.41841184 39.20098919 -6.78852844 40.57167149 C-10.4944972 44.27792632 -14.2035339 47.98109692 -17.91314077 51.68370986 C-21.79466762 55.55897162 -25.67334949 59.43707874 -29.55233765 63.31488132 C-36.89186341 70.65130306 -44.23393384 77.98517265 -51.57692826 85.31812245 C-59.93922553 93.66922971 -68.2986724 102.02318773 -76.65788436 110.37738311 C-93.84763715 127.55669256 -111.04095567 144.73242964 -128.2366333 161.90580845 C-131.54016007 160.33898304 -133.77496948 158.63714272 -136.3616333 156.03080845 C-137.38643799 155.01373814 -137.38643799 155.01373814 -138.4319458 153.97612095 C-140.97377644 151.06016805 -142.11132761 148.86648538 -142.6116333 145.03080845 C-141.85108005 138.69286467 -136.97970915 134.35427387 -132.6194458 130.01446629 C-131.78550797 129.17267343 -131.78550797 129.17267343 -130.9347229 128.31387466 C-129.08174422 126.44596573 -127.22175627 124.58520443 -125.3616333 122.72441196 C-124.02725677 121.38240981 -122.69328261 120.04000747 -121.35968018 118.69723606 C-117.74490546 115.0605624 -114.12362114 111.43044049 -110.50042725 107.80215669 C-108.23798016 105.53606373 -105.97683613 103.26867874 -103.71612549 101.00085354 C-95.83251151 93.09277112 -87.94321695 85.19040207 -80.0491333 77.29277134 C-72.68339276 69.92338691 -65.33091545 62.54094643 -57.98428345 55.1525169 C-51.67795202 48.81156347 -45.36210428 42.48019537 -39.03878784 36.15617985 C-35.26119231 32.37778942 -31.48772437 28.59548305 -27.72393799 24.80333233 C-24.1890255 21.24237469 -20.64249341 17.69342602 -17.08648682 14.1535368 C-15.78083085 12.84970554 -14.47947238 11.54155505 -13.18267822 10.22890949 C-11.41765634 8.44362773 -9.63808218 6.67428698 -7.8538208 4.90826511 C-7.33903168 4.38027602 -6.82424255 3.85228693 -6.29385376 3.30829817 C-2.78632569 -0.1173408 -2.78632569 -0.1173408 0 0 Z " fill="#FAE8CD" transform="translate(161.23663330078125,208.0941915512085)"/>
<path d="M0 0 C1.56292949 3.12585899 0.01661677 5.87488259 -0.9375 9.0625 C-3.85822316 18.55445273 -3.85822316 18.55445273 -2.0234375 27.95703125 C-1.64445312 28.56933594 -1.26546875 29.18164062 -0.875 29.8125 C-0.25625 30.864375 0.3625 31.91625 1 33 C-0.14883062 36.54710923 -2.55179541 38.79862802 -5.15078735 41.39129639 C-6.02019455 42.26345291 -6.88960175 43.13560944 -7.78535461 44.03419495 C-8.75085363 44.9926163 -9.71644827 45.95094133 -10.68212891 46.90917969 C-11.69761894 47.92410545 -12.71266852 48.93947208 -13.72731018 49.95524597 C-16.4809079 52.70941754 -19.24062883 55.45737879 -22.00148439 58.20427227 C-24.88651097 61.076797 -27.76587542 63.95498586 -30.64584351 66.83258057 C-36.09937878 72.27989947 -41.55799229 77.72210002 -47.01844537 83.16248345 C-53.2351334 89.35681738 -59.44614388 95.55683076 -65.65668225 101.75732946 C-78.43147778 114.51121944 -91.21339139 127.257954 -104 140 C-107.01409306 138.55695686 -109.10472016 137.13408132 -111.453125 134.7421875 C-112.071875 134.11699219 -112.690625 133.49179687 -113.328125 132.84765625 C-114.27945313 131.87119141 -114.27945313 131.87119141 -115.25 130.875 C-115.8996875 130.21628906 -116.549375 129.55757812 -117.21875 128.87890625 C-118.81711727 127.25703357 -120.41061897 125.6306719 -122 124 C-120.43120659 120.22451546 -118.08098268 117.83446706 -115.2038269 114.96331787 C-114.71209177 114.46987389 -114.22035664 113.97642991 -113.71372044 113.46803308 C-112.06630328 111.81732408 -110.41184425 110.1738608 -108.75732422 108.53027344 C-107.57434867 107.34786207 -106.39181342 106.16501006 -105.20968628 104.98175049 C-101.99949432 101.77098428 -98.78316948 98.56642554 -95.56572104 95.36293316 C-92.20423474 92.01394212 -88.84840441 88.65929345 -85.49197388 85.30523682 C-79.13533185 78.95481309 -72.77360836 72.6095052 -66.41005051 66.26601243 C-59.16557328 59.04388326 -51.92676845 51.81608006 -44.68843818 44.58779097 C-29.79860209 29.71886482 -14.90164503 14.85709058 0 0 Z " fill="#FAE8CD" transform="translate(200,293)"/>
<path d="M0 0 C4.21592931 1.64393376 7.03022614 4.76355386 10.14550781 7.91845703 C10.75081329 8.52347046 11.35611877 9.12848389 11.97976685 9.75183105 C13.9756645 11.74911999 15.96438799 13.75339558 17.953125 15.7578125 C19.33702668 17.14544502 20.72137112 18.5326361 22.10614014 19.91940308 C25.7470322 23.567926 29.38187778 27.22241552 33.01550293 30.87817383 C36.72545688 34.60859789 40.44108927 38.33335643 44.15625 42.05859375 C51.44307344 49.36685747 58.72352265 56.68143616 66 64 C65.0636169 65.10338218 64.12563812 66.20541029 63.18701172 67.30688477 C62.66485077 67.92072525 62.14268982 68.53456573 61.60470581 69.16700745 C59.23001076 71.87952853 56.69567399 74.41223193 54.125 76.9375 C53.62742187 77.43056641 53.12984375 77.92363281 52.6171875 78.43164062 C51.41379715 79.62345992 50.20724635 80.81208678 49 82 C39.56966474 74.15393459 30.90032905 65.45089606 22.15503597 56.85891342 C19.25289252 54.00839904 16.34015562 51.17084169 13.3996582 48.35986328 C10.53796774 45.62365723 7.70683047 42.85903939 4.89459419 40.07205963 C3.82315778 39.02021071 2.74137599 37.97878937 1.64918327 36.94850922 C-6.84147641 28.91805517 -6.84147641 28.91805517 -7.22912598 24.22769165 C-6.73409599 21.63433497 -6.00460047 19.43603307 -5 17 C-4.55527961 15.43910084 -4.12344162 13.8744081 -3.7109375 12.3046875 C-3.27015409 10.82676665 -2.82487704 9.35017819 -2.375 7.875 C-2.14554687 7.10929687 -1.91609375 6.34359375 -1.6796875 5.5546875 C-1.12385188 3.70190208 -0.56252924 1.85076414 0 0 Z " fill="#FAD49B" transform="translate(276,261)"/>
<path d="M0 0 C5.07497019 0.6319029 9.88414519 1.64654137 14.8125 3 C15.81313477 3.26683594 15.81313477 3.26683594 16.83398438 3.5390625 C21.72177198 4.86088599 21.72177198 4.86088599 24 6 C20.93059518 20.07577195 17.34918296 33.99008747 13.31274414 47.81860352 C10.9638807 55.94544406 8.91534795 64.13929198 6.91625977 72.35839844 C6.67963623 73.32680664 6.4430127 74.29521484 6.19921875 75.29296875 C5.99127686 76.1543042 5.78333496 77.01563965 5.5690918 77.90307617 C5 80 5 80 4 82 C-4.1698614 80.56933303 -12.05394988 78.35862583 -20 76 C-18.62326161 68.53999896 -16.81470304 61.25219284 -14.8125 53.9375 C-14.50787842 52.81496826 -14.20325684 51.69243652 -13.8894043 50.53588867 C-11.44898487 41.57099318 -8.94812091 32.62321084 -6.43066406 23.6796875 C-4.21580608 15.80463689 -2.07177158 7.91391007 0 0 Z " fill="#FAD49B" transform="translate(236,238)"/>
<path d="M0 0 C3.61692773 1.52897576 5.9203522 3.67815633 8.67675781 6.44970703 C9.59741028 7.37051056 10.51806274 8.29131409 11.46661377 9.24002075 C12.4622253 10.24584465 13.45772648 11.2517778 14.453125 12.2578125 C15.47830193 13.28672149 16.50392275 14.31518837 17.52996826 15.3432312 C20.22393164 18.04481581 22.91183368 20.75235341 25.59851074 23.46118164 C28.34328304 26.22644489 31.09375472 28.98602633 33.84375 31.74609375 C39.23475573 37.15852274 44.61936964 42.57725438 50 48 C49.38576172 48.30542725 48.77152344 48.61085449 48.13867188 48.92553711 C40.99085089 52.51658279 36.41539562 55.5478678 33.55859375 63.2421875 C33.37425781 63.82226562 33.18992188 64.40234375 33 65 C29.43854977 63.48346895 27.14369775 61.3969946 24.41503906 58.67382812 C23.51440735 57.77950073 22.61377563 56.88517334 21.68585205 55.96374512 C20.71218727 54.9865015 19.73878439 54.00899689 18.765625 53.03125 C17.76272319 52.02969576 16.75952468 51.02843855 15.75604248 50.02746582 C13.65814945 47.93251701 11.56390617 45.83400385 9.47216797 43.73291016 C6.78650212 41.03582072 4.09191822 38.34784814 1.39456558 35.6624527 C-0.67646736 33.59863217 -2.74273116 31.53008999 -4.80756378 29.46006775 C-5.79969595 28.46659889 -6.79332289 27.47462053 -7.78844452 26.48414612 C-9.1746643 25.10298439 -10.55382699 23.71475049 -11.93261719 22.32617188 C-12.71997253 21.53722534 -13.50732788 20.74827881 -14.31854248 19.9354248 C-16 18 -16 18 -16 16 C-14.49609375 14.51953125 -14.49609375 14.51953125 -12.4375 12.8125 C-5.3421461 7.14904144 -5.3421461 7.14904144 0 0 Z " fill="#FAD49B" transform="translate(184,169)"/>
<path d="M0 0 C2.97251817 2.22938863 4.73081251 4.26561478 5.30859375 7.98828125 C5.56505719 12.61239482 5.51862003 14.38018582 2.4375 18.0625 C-1.56576395 20.31888513 -3.47913154 20.72656814 -8 20 C-11.375 18.5625 -11.375 18.5625 -14 16 C-15.09365551 12.93427419 -15.35226496 10.23189123 -15 7 C-11.35223684 -0.04395645 -7.55187509 -1.00781251 0 0 Z " fill="#010101" transform="translate(304,44)"/>
<path d="M0 0 C2.90567066 0.88784381 3.86322363 1.83492507 5.8125 4.1875 C7.41447672 7.98165538 7.12609115 10.05868098 6 14 C3.38139847 17.54281383 1.74658348 18.78669043 -2.5 20 C-6.4426352 20 -7.9883641 19.49535546 -11 17 C-13.3054761 14.03581644 -13.54550671 10.68557278 -13.44140625 6.97265625 C-13 5 -13 5 -10.4375 2 C-6.4930362 -0.29496075 -4.48703816 -0.58165309 0 0 Z " fill="#070605" transform="translate(178,421)"/>
</svg>
